<mxfile host="app.diagrams.net" agent="Mozilla/5.0 (Windows NT 10.0; Win64; x64) AppleWebKit/537.36 (KHTML, like Gecko) Chrome/131.0.0.0 Safari/537.36" version="26.0.2">
  <diagram name="PÃ¡gina-1" id="eh15d9SxUryX6OE-ME7K">
    <mxGraphModel dx="1420" dy="758" grid="1" gridSize="10" guides="1" tooltips="1" connect="1" arrows="1" fold="1" page="1" pageScale="1" pageWidth="827" pageHeight="1169" math="0" shadow="0">
      <root>
        <mxCell id="0" />
        <mxCell id="1" parent="0" />
        <mxCell id="-2zIi-z-1TWyc07po9YM-34" value="&lt;font style=&quot;font-size: 16px;&quot;&gt;&lt;b&gt;interface&lt;/b&gt;&lt;/font&gt;" style="rounded=0;whiteSpace=wrap;html=1;verticalAlign=top;" vertex="1" parent="1">
          <mxGeometry x="120" y="160" width="1120" height="600" as="geometry" />
        </mxCell>
        <mxCell id="-2zIi-z-1TWyc07po9YM-35" value="" style="group" vertex="1" connectable="0" parent="1">
          <mxGeometry x="440" y="200" width="400" height="560" as="geometry" />
        </mxCell>
        <mxCell id="-2zIi-z-1TWyc07po9YM-2" value="controller" style="rounded=0;whiteSpace=wrap;html=1;fillColor=#ffe6cc;strokeColor=none;horizontal=1;labelPosition=center;verticalLabelPosition=middle;align=center;verticalAlign=top;fontStyle=1;fontSize=16;" vertex="1" parent="-2zIi-z-1TWyc07po9YM-35">
          <mxGeometry width="400" height="520" as="geometry" />
        </mxCell>
        <mxCell id="-2zIi-z-1TWyc07po9YM-11" value="" style="group" vertex="1" connectable="0" parent="-2zIi-z-1TWyc07po9YM-35">
          <mxGeometry x="40" y="40" width="310" height="280" as="geometry" />
        </mxCell>
        <mxCell id="-2zIi-z-1TWyc07po9YM-12" value="&lt;b&gt;&lt;font style=&quot;font-size: 16px;&quot;&gt;ControllerGui&lt;/font&gt;&lt;/b&gt;" style="rounded=0;whiteSpace=wrap;html=1;align=center;verticalAlign=top;" vertex="1" parent="-2zIi-z-1TWyc07po9YM-11">
          <mxGeometry width="310" height="260" as="geometry" />
        </mxCell>
        <mxCell id="-2zIi-z-1TWyc07po9YM-13" value="+ selected_objects" style="rounded=0;whiteSpace=wrap;html=1;align=left;verticalAlign=top;" vertex="1" parent="-2zIi-z-1TWyc07po9YM-11">
          <mxGeometry y="47.52" width="310" height="32.48" as="geometry" />
        </mxCell>
        <mxCell id="-2zIi-z-1TWyc07po9YM-14" value="+ ControllerGui ()&lt;br&gt;&lt;div&gt;&lt;span style=&quot;background-color: transparent; color: light-dark(rgb(0, 0, 0), rgb(255, 255, 255));&quot;&gt;+&lt;/span&gt;&lt;span style=&quot;background-color: transparent; color: light-dark(rgb(0, 0, 0), rgb(255, 255, 255));&quot;&gt;&amp;nbsp;&lt;/span&gt;start ()&lt;/div&gt;&lt;div&gt;&lt;span style=&quot;background-color: transparent; color: light-dark(rgb(0, 0, 0), rgb(255, 255, 255));&quot;&gt;+&lt;/span&gt;&lt;span style=&quot;background-color: transparent; color: light-dark(rgb(0, 0, 0), rgb(255, 255, 255));&quot;&gt;&amp;nbsp;&lt;/span&gt;stop ()&lt;/div&gt;&lt;div&gt;&lt;span style=&quot;background-color: transparent; color: light-dark(rgb(0, 0, 0), rgb(255, 255, 255));&quot;&gt;+&lt;/span&gt;&lt;span style=&quot;background-color: transparent; color: light-dark(rgb(0, 0, 0), rgb(255, 255, 255));&quot;&gt;&amp;nbsp;&lt;/span&gt;on_checkbox_toggle (obj_id, var, frame)&lt;/div&gt;&lt;div&gt;&lt;span style=&quot;background-color: transparent; color: light-dark(rgb(0, 0, 0), rgb(255, 255, 255));&quot;&gt;+&lt;/span&gt;&lt;span style=&quot;background-color: transparent; color: light-dark(rgb(0, 0, 0), rgb(255, 255, 255));&quot;&gt;&amp;nbsp;&lt;/span&gt;clear_plots (frame)&lt;/div&gt;&lt;div&gt;&lt;span style=&quot;background-color: transparent; color: light-dark(rgb(0, 0, 0), rgb(255, 255, 255));&quot;&gt;+&lt;/span&gt;&lt;span style=&quot;background-color: transparent; color: light-dark(rgb(0, 0, 0), rgb(255, 255, 255));&quot;&gt;&amp;nbsp;&lt;/span&gt;plot_terrain (frame_or_ax)&lt;/div&gt;&lt;div style=&quot;&quot;&gt;&lt;span style=&quot;background-color: transparent; color: light-dark(rgb(0, 0, 0), rgb(255, 255, 255));&quot;&gt;+&lt;/span&gt;&lt;span style=&quot;background-color: transparent; color: light-dark(rgb(0, 0, 0), rgb(255, 255, 255));&quot;&gt;&amp;nbsp;&lt;/span&gt;plot_trajectory_and_kinematics (selected_objects, ax)&lt;/div&gt;&lt;div style=&quot;&quot;&gt;&lt;span style=&quot;background-color: transparent; color: light-dark(rgb(0, 0, 0), rgb(255, 255, 255));&quot;&gt;+&lt;/span&gt;&lt;span style=&quot;background-color: transparent; color: light-dark(rgb(0, 0, 0), rgb(255, 255, 255));&quot;&gt;&amp;nbsp;&lt;/span&gt;update_plot (frame)&lt;/div&gt;&lt;div style=&quot;&quot;&gt;&lt;span style=&quot;background-color: transparent; color: light-dark(rgb(0, 0, 0), rgb(255, 255, 255));&quot;&gt;+&lt;/span&gt;&lt;span style=&quot;background-color: transparent; color: light-dark(rgb(0, 0, 0), rgb(255, 255, 255));&quot;&gt;&amp;nbsp;&lt;/span&gt;on_submit (ni, frame)&lt;/div&gt;&lt;div style=&quot;&quot;&gt;&lt;span style=&quot;background-color: transparent; color: light-dark(rgb(0, 0, 0), rgb(255, 255, 255));&quot;&gt;+&lt;/span&gt;&lt;span style=&quot;background-color: transparent; color: light-dark(rgb(0, 0, 0), rgb(255, 255, 255));&quot;&gt;&amp;nbsp;&lt;/span&gt;load_object_types ()&lt;/div&gt;&lt;div style=&quot;&quot;&gt;+ load_view_data (view_name, geom_col)&lt;/div&gt;" style="rounded=0;whiteSpace=wrap;html=1;align=left;verticalAlign=top;" vertex="1" parent="-2zIi-z-1TWyc07po9YM-11">
          <mxGeometry y="80" width="310" height="180" as="geometry" />
        </mxCell>
        <mxCell id="-2zIi-z-1TWyc07po9YM-15" value="" style="group" vertex="1" connectable="0" parent="-2zIi-z-1TWyc07po9YM-35">
          <mxGeometry x="40" y="360" width="310" height="200" as="geometry" />
        </mxCell>
        <mxCell id="-2zIi-z-1TWyc07po9YM-16" value="&lt;b&gt;&lt;font style=&quot;font-size: 16px;&quot;&gt;ZoomController&lt;/font&gt;&lt;/b&gt;" style="rounded=0;whiteSpace=wrap;html=1;align=center;verticalAlign=top;" vertex="1" parent="-2zIi-z-1TWyc07po9YM-15">
          <mxGeometry width="310" height="110" as="geometry" />
        </mxCell>
        <mxCell id="-2zIi-z-1TWyc07po9YM-17" value="" style="rounded=0;whiteSpace=wrap;html=1;align=left;verticalAlign=top;" vertex="1" parent="-2zIi-z-1TWyc07po9YM-15">
          <mxGeometry y="39.998" width="310" height="22.90866666666667" as="geometry" />
        </mxCell>
        <mxCell id="-2zIi-z-1TWyc07po9YM-18" value="&lt;div&gt;&lt;span style=&quot;background-color: transparent; color: light-dark(rgb(0, 0, 0), rgb(255, 255, 255));&quot;&gt;+&lt;/span&gt;&lt;span style=&quot;background-color: transparent; color: light-dark(rgb(0, 0, 0), rgb(255, 255, 255));&quot;&gt;&amp;nbsp;setup_zoom_and_drag (canvas, ax)&lt;/span&gt;&lt;/div&gt;" style="rounded=0;whiteSpace=wrap;html=1;align=left;verticalAlign=top;" vertex="1" parent="-2zIi-z-1TWyc07po9YM-15">
          <mxGeometry y="62.91" width="310" height="47.09" as="geometry" />
        </mxCell>
        <mxCell id="-2zIi-z-1TWyc07po9YM-29" style="edgeStyle=orthogonalEdgeStyle;rounded=0;orthogonalLoop=1;jettySize=auto;html=1;startArrow=open;startFill=0;endArrow=none;endFill=0;entryX=0.5;entryY=1;entryDx=0;entryDy=0;dashed=1;dashPattern=8 8;" edge="1" parent="-2zIi-z-1TWyc07po9YM-35" source="-2zIi-z-1TWyc07po9YM-16" target="-2zIi-z-1TWyc07po9YM-14">
          <mxGeometry relative="1" as="geometry">
            <mxPoint x="195" y="320" as="targetPoint" />
          </mxGeometry>
        </mxCell>
        <mxCell id="-2zIi-z-1TWyc07po9YM-30" value="+ zoom_controller" style="edgeLabel;html=1;align=center;verticalAlign=middle;resizable=0;points=[];" vertex="1" connectable="0" parent="-2zIi-z-1TWyc07po9YM-29">
          <mxGeometry x="0.7413" relative="1" as="geometry">
            <mxPoint x="45" y="2" as="offset" />
          </mxGeometry>
        </mxCell>
        <mxCell id="-2zIi-z-1TWyc07po9YM-36" value="" style="group" vertex="1" connectable="0" parent="1">
          <mxGeometry x="880" y="200" width="320" height="560" as="geometry" />
        </mxCell>
        <mxCell id="-2zIi-z-1TWyc07po9YM-3" value="model" style="rounded=0;whiteSpace=wrap;html=1;fillColor=#f5f5f5;strokeColor=none;fontColor=#333333;horizontal=1;labelPosition=center;verticalLabelPosition=middle;align=center;verticalAlign=top;fontStyle=1;fontSize=16;" vertex="1" parent="-2zIi-z-1TWyc07po9YM-36">
          <mxGeometry width="320" height="520" as="geometry" />
        </mxCell>
        <mxCell id="-2zIi-z-1TWyc07po9YM-19" value="" style="group" vertex="1" connectable="0" parent="-2zIi-z-1TWyc07po9YM-36">
          <mxGeometry x="40" y="40" width="230" height="280" as="geometry" />
        </mxCell>
        <mxCell id="-2zIi-z-1TWyc07po9YM-20" value="&lt;b&gt;&lt;font style=&quot;font-size: 16px;&quot;&gt;Database&lt;/font&gt;&lt;/b&gt;" style="rounded=0;whiteSpace=wrap;html=1;align=center;verticalAlign=top;" vertex="1" parent="-2zIi-z-1TWyc07po9YM-19">
          <mxGeometry width="230" height="190" as="geometry" />
        </mxCell>
        <mxCell id="-2zIi-z-1TWyc07po9YM-21" value="- engine&lt;div&gt;+ connection&lt;/div&gt;&lt;div&gt;+ url&lt;/div&gt;" style="rounded=0;whiteSpace=wrap;html=1;align=left;verticalAlign=top;" vertex="1" parent="-2zIi-z-1TWyc07po9YM-19">
          <mxGeometry y="47.52" width="230" height="62.48" as="geometry" />
        </mxCell>
        <mxCell id="-2zIi-z-1TWyc07po9YM-22" value="+ Database ()&lt;br&gt;&lt;div&gt;&lt;span style=&quot;background-color: transparent; color: light-dark(rgb(0, 0, 0), rgb(255, 255, 255));&quot;&gt;+&lt;/span&gt;&lt;span style=&quot;background-color: transparent; color: light-dark(rgb(0, 0, 0), rgb(255, 255, 255));&quot;&gt;&amp;nbsp;&lt;/span&gt;connection ()&lt;/div&gt;&lt;div&gt;&lt;span style=&quot;background-color: transparent; color: light-dark(rgb(0, 0, 0), rgb(255, 255, 255));&quot;&gt;+&lt;/span&gt;&lt;span style=&quot;background-color: transparent; color: light-dark(rgb(0, 0, 0), rgb(255, 255, 255));&quot;&gt;&amp;nbsp;&lt;/span&gt;disconnect ()&lt;/div&gt;&lt;div&gt;&lt;span style=&quot;background-color: transparent; color: light-dark(rgb(0, 0, 0), rgb(255, 255, 255));&quot;&gt;+&lt;/span&gt;&lt;span style=&quot;background-color: transparent; color: light-dark(rgb(0, 0, 0), rgb(255, 255, 255));&quot;&gt;&amp;nbsp;&lt;/span&gt;read_sql ()&lt;/div&gt;" style="rounded=0;whiteSpace=wrap;html=1;align=left;verticalAlign=top;" vertex="1" parent="-2zIi-z-1TWyc07po9YM-19">
          <mxGeometry y="110" width="230" height="80" as="geometry" />
        </mxCell>
        <mxCell id="-2zIi-z-1TWyc07po9YM-23" value="" style="group" vertex="1" connectable="0" parent="-2zIi-z-1TWyc07po9YM-36">
          <mxGeometry x="40" y="280" width="230" height="280" as="geometry" />
        </mxCell>
        <mxCell id="-2zIi-z-1TWyc07po9YM-24" value="&lt;b&gt;&lt;font style=&quot;font-size: 16px;&quot;&gt;PostGis&lt;/font&gt;&lt;/b&gt;" style="rounded=0;whiteSpace=wrap;html=1;align=center;verticalAlign=top;" vertex="1" parent="-2zIi-z-1TWyc07po9YM-23">
          <mxGeometry width="230" height="190" as="geometry" />
        </mxCell>
        <mxCell id="-2zIi-z-1TWyc07po9YM-25" value="" style="rounded=0;whiteSpace=wrap;html=1;align=left;verticalAlign=top;" vertex="1" parent="-2zIi-z-1TWyc07po9YM-23">
          <mxGeometry y="47.52" width="230" height="32.48" as="geometry" />
        </mxCell>
        <mxCell id="-2zIi-z-1TWyc07po9YM-26" value="+ PostGis ()&lt;br&gt;&lt;div&gt;&lt;span style=&quot;background-color: transparent; color: light-dark(rgb(0, 0, 0), rgb(255, 255, 255));&quot;&gt;+&lt;/span&gt;&lt;span style=&quot;background-color: transparent; color: light-dark(rgb(0, 0, 0), rgb(255, 255, 255));&quot;&gt;&amp;nbsp;&lt;/span&gt;read_postgis (query, geom_col)&lt;/div&gt;&lt;div&gt;&lt;span style=&quot;background-color: transparent; color: light-dark(rgb(0, 0, 0), rgb(255, 255, 255));&quot;&gt;+&lt;/span&gt;&lt;span style=&quot;background-color: transparent; color: light-dark(rgb(0, 0, 0), rgb(255, 255, 255));&quot;&gt;&amp;nbsp;&lt;/span&gt;validate_geometry (df, geom_col)&lt;/div&gt;&lt;div&gt;&lt;span style=&quot;background-color: transparent; color: light-dark(rgb(0, 0, 0), rgb(255, 255, 255));&quot;&gt;+&lt;/span&gt;&lt;span style=&quot;background-color: transparent; color: light-dark(rgb(0, 0, 0), rgb(255, 255, 255));&quot;&gt;&amp;nbsp;&lt;/span&gt;simular_perseguicao (num_iteracoes)&lt;/div&gt;&lt;div&gt;+ get_view (view_name, geom_col)&lt;/div&gt;&lt;div&gt;+ get_objetos_types ()&lt;/div&gt;" style="rounded=0;whiteSpace=wrap;html=1;align=left;verticalAlign=top;" vertex="1" parent="-2zIi-z-1TWyc07po9YM-23">
          <mxGeometry y="80" width="230" height="110" as="geometry" />
        </mxCell>
        <mxCell id="-2zIi-z-1TWyc07po9YM-33" style="edgeStyle=orthogonalEdgeStyle;rounded=0;orthogonalLoop=1;jettySize=auto;html=1;exitX=0.5;exitY=0;exitDx=0;exitDy=0;endArrow=block;endFill=0;" edge="1" parent="-2zIi-z-1TWyc07po9YM-36" source="-2zIi-z-1TWyc07po9YM-24" target="-2zIi-z-1TWyc07po9YM-22">
          <mxGeometry relative="1" as="geometry" />
        </mxCell>
        <mxCell id="-2zIi-z-1TWyc07po9YM-37" value="" style="group" vertex="1" connectable="0" parent="1">
          <mxGeometry x="120" y="200" width="280" height="320" as="geometry" />
        </mxCell>
        <mxCell id="-2zIi-z-1TWyc07po9YM-1" value="&lt;font&gt;view&lt;/font&gt;" style="rounded=0;whiteSpace=wrap;html=1;fillColor=#dae8fc;strokeColor=none;horizontal=1;labelPosition=center;verticalLabelPosition=middle;align=center;verticalAlign=top;fontSize=16;fontStyle=1" vertex="1" parent="-2zIi-z-1TWyc07po9YM-37">
          <mxGeometry x="40" width="240" height="320" as="geometry" />
        </mxCell>
        <mxCell id="-2zIi-z-1TWyc07po9YM-10" value="" style="group;verticalAlign=top;" vertex="1" connectable="0" parent="-2zIi-z-1TWyc07po9YM-37">
          <mxGeometry x="80" y="40" width="160" height="240" as="geometry" />
        </mxCell>
        <mxCell id="-2zIi-z-1TWyc07po9YM-8" value="&lt;b&gt;&lt;font style=&quot;font-size: 16px;&quot;&gt;Gui&lt;/font&gt;&lt;/b&gt;" style="rounded=0;whiteSpace=wrap;html=1;align=center;verticalAlign=top;" vertex="1" parent="-2zIi-z-1TWyc07po9YM-10">
          <mxGeometry width="160" height="239.99999999999997" as="geometry" />
        </mxCell>
        <mxCell id="-2zIi-z-1TWyc07po9YM-7" value="+ root&lt;div&gt;+ paned_window&lt;/div&gt;&lt;div&gt;+ graph_frame&lt;/div&gt;" style="rounded=0;whiteSpace=wrap;html=1;align=left;verticalAlign=top;" vertex="1" parent="-2zIi-z-1TWyc07po9YM-10">
          <mxGeometry y="43.64" width="160" height="56.36" as="geometry" />
        </mxCell>
        <mxCell id="-2zIi-z-1TWyc07po9YM-9" value="+ Gui ()&lt;br&gt;&lt;div&gt;&lt;span style=&quot;background-color: transparent; color: light-dark(rgb(0, 0, 0), rgb(255, 255, 255));&quot;&gt;+&lt;/span&gt;&lt;span style=&quot;background-color: transparent; color: light-dark(rgb(0, 0, 0), rgb(255, 255, 255));&quot;&gt;&amp;nbsp;&lt;/span&gt;create ()&lt;/div&gt;&lt;div&gt;&lt;span style=&quot;background-color: transparent; color: light-dark(rgb(0, 0, 0), rgb(255, 255, 255));&quot;&gt;+&lt;/span&gt;&lt;span style=&quot;background-color: transparent; color: light-dark(rgb(0, 0, 0), rgb(255, 255, 255));&quot;&gt;&amp;nbsp;&lt;/span&gt;start ()&lt;/div&gt;&lt;div&gt;&lt;span style=&quot;background-color: transparent; color: light-dark(rgb(0, 0, 0), rgb(255, 255, 255));&quot;&gt;+&lt;/span&gt;&lt;span style=&quot;background-color: transparent; color: light-dark(rgb(0, 0, 0), rgb(255, 255, 255));&quot;&gt;&amp;nbsp;&lt;/span&gt;destroy ()&lt;/div&gt;&lt;div&gt;- create_checkbox ()&lt;/div&gt;&lt;div&gt;- create_map ()&lt;/div&gt;&lt;div style=&quot;&quot;&gt;- create_controls ()&lt;/div&gt;" style="rounded=0;whiteSpace=wrap;html=1;align=left;verticalAlign=top;" vertex="1" parent="-2zIi-z-1TWyc07po9YM-10">
          <mxGeometry y="100" width="160" height="140" as="geometry" />
        </mxCell>
        <mxCell id="-2zIi-z-1TWyc07po9YM-31" style="edgeStyle=orthogonalEdgeStyle;rounded=0;orthogonalLoop=1;jettySize=auto;html=1;entryX=0;entryY=0.25;entryDx=0;entryDy=0;endArrow=open;endFill=0;dashed=1;dashPattern=8 8;" edge="1" parent="1" source="-2zIi-z-1TWyc07po9YM-13" target="-2zIi-z-1TWyc07po9YM-26">
          <mxGeometry relative="1" as="geometry" />
        </mxCell>
        <mxCell id="-2zIi-z-1TWyc07po9YM-32" value="+ db" style="edgeLabel;html=1;align=center;verticalAlign=middle;resizable=0;points=[];" vertex="1" connectable="0" parent="-2zIi-z-1TWyc07po9YM-31">
          <mxGeometry x="-0.7349" relative="1" as="geometry">
            <mxPoint x="-40" y="-14" as="offset" />
          </mxGeometry>
        </mxCell>
        <mxCell id="-2zIi-z-1TWyc07po9YM-27" style="edgeStyle=orthogonalEdgeStyle;rounded=0;orthogonalLoop=1;jettySize=auto;html=1;entryX=0;entryY=0.143;entryDx=0;entryDy=0;entryPerimeter=0;endArrow=open;endFill=0;dashed=1;dashPattern=8 8;" edge="1" parent="1" source="-2zIi-z-1TWyc07po9YM-8" target="-2zIi-z-1TWyc07po9YM-14">
          <mxGeometry relative="1" as="geometry" />
        </mxCell>
        <mxCell id="-2zIi-z-1TWyc07po9YM-28" value="+ controller" style="edgeLabel;html=1;align=center;verticalAlign=middle;resizable=0;points=[];" vertex="1" connectable="0" parent="-2zIi-z-1TWyc07po9YM-27">
          <mxGeometry x="-0.392" y="2" relative="1" as="geometry">
            <mxPoint x="-31" y="-8" as="offset" />
          </mxGeometry>
        </mxCell>
      </root>
    </mxGraphModel>
  </diagram>
</mxfile>
